<svg width="1440" height="1440" viewBox="0 0 1440 1440" fill="none" xmlns="http://www.w3.org/2000/svg">
<g clip-path="url(#clip0_9_240)">
<rect width="1440" height="1440" fill="#F5F5F5"/>
<path d="M139 1061.29C409.936 1172.87 551.815 868.683 702.247 606.733C868.523 317.972 1085.58 235.449 1341 260.118" stroke="#4A7C3F" stroke-opacity="0.2" stroke-width="5"/>
<mask id="mask0_9_240" style="mask-type:luminance" maskUnits="userSpaceOnUse" x="0" y="0" width="1440" height="1440">
<path d="M1440 0H0V1440H1440V0Z" fill="white"/>
</mask>
<g mask="url(#mask0_9_240)">
<path d="M1290.68 1377.43C1408.09 1305.13 1422.38 1126.51 1322.6 978.468C1222.83 830.427 1046.75 769.026 929.333 841.327C811.918 913.627 797.623 1092.25 897.407 1240.29C997.193 1388.33 1173.27 1449.73 1290.68 1377.43Z" fill="url(#paint0_linear_9_240)"/>
<path d="M93 374.404V109H358.487" stroke="#E8A838" stroke-opacity="0.9" stroke-width="32" stroke-linecap="square"/>
<path d="M54 1282H297.75M54 1320.93H222.75M54 1359.85H357.75" stroke="#758E3D" stroke-opacity="0.3" stroke-width="2"/>
<path d="M1329 1084V1334H1079" stroke="#C08B30" stroke-opacity="0.9" stroke-width="32" stroke-linecap="square"/>
<path d="M75.4219 97.1053C-23.7167 206.42 -8.45982 395 109.498 518.312C227.457 641.623 403.449 652.969 502.588 543.655C601.727 434.34 586.47 245.759 468.511 122.448C350.552 -0.863045 174.56 -12.2095 75.4219 97.1053Z" fill="url(#paint1_linear_9_240)"/>
<path d="M43 1033.78C301.667 1130.51 458.325 841.455 582.195 580.197C716.993 294.482 942.867 185.533 1203 255.572C997.519 313.382 971.287 580.197 860.536 802.544C713.35 1097.15 465.612 1197.21 43 1033.78Z" fill="url(#paint2_linear_9_240)"/>
<path d="M66 1044.43C350.312 1141.59 522.502 851.221 658.652 588.772C806.814 301.754 1055.09 192.307 1341 262.665C1115.15 320.739 1086.32 588.772 964.588 812.133C802.81 1108.09 530.511 1208.6 66 1044.43Z" fill="url(#paint3_linear_9_240)"/>
</g>
</g>
<defs>
<linearGradient id="paint0_linear_9_240" x1="1195.65" y1="1210.56" x2="778.464" y2="1136.93" gradientUnits="userSpaceOnUse">
<stop stop-color="#E8A838" stop-opacity="0.22"/>
<stop offset="1" stop-color="#E8A838" stop-opacity="0"/>
</linearGradient>
<linearGradient id="paint1_linear_9_240" x1="191.928" y1="241.25" x2="597.1" y2="243.345" gradientUnits="userSpaceOnUse">
<stop stop-color="#9BC53D" stop-opacity="0.22"/>
<stop offset="1" stop-color="#9BC53D" stop-opacity="0"/>
</linearGradient>
<linearGradient id="paint2_linear_9_240" x1="188.729" y1="1069.36" x2="1451.96" y2="660.766" gradientUnits="userSpaceOnUse">
<stop stop-color="#4A7C3F" stop-opacity="0.12"/>
<stop offset="0.52" stop-color="#9BC53D" stop-opacity="0.45"/>
<stop offset="1" stop-color="#4A7C3F" stop-opacity="0.18"/>
</linearGradient>
<linearGradient id="paint3_linear_9_240" x1="226.176" y1="1080.17" x2="1589.2" y2="597.787" gradientUnits="userSpaceOnUse">
<stop stop-color="#4A7C3F" stop-opacity="0.12"/>
<stop offset="0.52" stop-color="#9BC53D" stop-opacity="0.45"/>
<stop offset="1" stop-color="#4A7C3F" stop-opacity="0.18"/>
</linearGradient>
<clipPath id="clip0_9_240">
<rect width="1440" height="1440" fill="white"/>
</clipPath>
</defs>
</svg>
