<svg width="1409" height="1022" viewBox="0 0 1409 1022" fill="none" xmlns="http://www.w3.org/2000/svg">
<g clip-path="url(#clip0_4_43)">
<path opacity="0.22" d="M-105.675 776.72C158.513 572.32 264.188 940.24 519.569 735.84C748.532 551.88 818.982 235.06 1083.17 306.6C1259.29 352.59 1347.36 245.28 1505.87 122.64" stroke="#9BC53D" stroke-width="92" stroke-linecap="round"/>
<path opacity="0.55" d="M-70.4502 705.18C193.737 511 290.606 838.04 537.181 664.3C770.547 500.78 840.997 194.18 1100.78 250.39C1276.91 288.204 1360.57 209.51 1488.26 91.98" stroke="#9BC53D" stroke-width="34" stroke-linecap="round"/>
<path opacity="0.55" d="M-55.8345 811.922C208.353 617.742 305.222 944.782 551.797 771.042C785.162 607.522 855.612 300.922 1115.4 357.132C1291.52 394.946 1375.18 316.252 1502.87 198.722" stroke="#9BC53D" stroke-width="34" stroke-linecap="round"/>
<path opacity="0.72" d="M-88.0625 471.661C167.319 297.921 308.219 558.531 510.763 400.121C739.725 221.271 836.594 42.4213 1074.36 88.4113C1224.07 117.027 1329.74 32.2013 1488.26 -100.659" stroke="#E8A838" stroke-width="26" stroke-linecap="round"/>
<path opacity="0.72" d="M-88.6782 491.209C166.703 317.469 307.603 578.079 510.147 419.669C739.109 240.819 835.978 61.9689 1073.75 107.959C1223.45 136.575 1329.13 51.7489 1487.64 -81.1111" stroke="#E8A838" stroke-width="26" stroke-linecap="round"/>
<path opacity="0.24" d="M1162.43 965.79C1254.83 965.79 1329.74 878.853 1329.74 771.61C1329.74 664.367 1254.83 577.43 1162.43 577.43C1070.02 577.43 995.106 664.367 995.106 771.61C995.106 878.853 1070.02 965.79 1162.43 965.79Z" stroke="#E8A838" stroke-width="3"/>
<path opacity="0.2" d="M1162.42 899.36C1223.22 899.36 1272.5 842.164 1272.5 771.61C1272.5 701.056 1223.22 643.86 1162.42 643.86C1101.63 643.86 1052.35 701.056 1052.35 771.61C1052.35 842.164 1101.63 899.36 1162.42 899.36Z" stroke="#9BC53D" stroke-width="3"/>
<path opacity="0.1" d="M220.156 339.304C264.901 339.304 301.174 297.208 301.174 245.28C301.174 193.352 264.901 151.256 220.156 151.256C175.411 151.256 139.139 193.352 139.139 245.28C139.139 297.208 175.411 339.304 220.156 339.304Z" fill="#E8A838"/>
<path opacity="0.08" d="M-52.5503 866.39C194.077 763.004 317.391 1050.19 581.634 883.621C810.645 740.029 898.726 481.562 1140.95 544.743C1277.48 579.205 1378.77 481.562 1497.68 360.944" stroke="#D1C0C0" stroke-width="3"/>
</g>
<defs>
<clipPath id="clip0_4_43">
<rect width="1409" height="1022" fill="white"/>
</clipPath>
</defs>
</svg>
